# xmcd
#
# Track frame offsets:
#	150
#	12338
#	20554
#	30359
#	37292
#	51252
#	60485
#	72647
#	79976
#	89550
#	97057
#	105311
#	112543
#	124148
#	132871
#	144920
#	161772
#	176688
#
# Disc length: 2571 seconds
#
# Revision: 0
# Processed by: cddbd v1.5.2PL0 Copyright (c) Steve Scherf et al.
# Submitted via: EasyCDDAExtractor 2010.6.0.0
#
DISCID=f40a0912
DTITLE=Kari Peitsamo and Straight Perverts - The unparalleled adventures of one 
DTITLE=Hans Pfaall
DYEAR=1900
DGENRE=
TTITLE0=The unparalleled adventures of one Hans Pfaall
TTITLE1=Buick electric blue
TTITLE2=Why did you kick my heart around?
TTITLE3=Tzöötz
TTITLE4=Underdog
TTITLE5=My bleeding heart
TTITLE6=Tractor pulling man
TTITLE7=Tykki lykki
TTITLE8=I promise I'll quit drinking that day
TTITLE9=Jesus freak
TTITLE10=Forever new
TTITLE11=Rock duck
TTITLE12=Huff and Puff
TTITLE13=Do you ever cry?
TTITLE14=Broken spoke shuffle
TTITLE15=Did you make your mama proud?
TTITLE16=A daughter of secret police
TTITLE17=Phantom reggae
EXTD=
EXTT0=
EXTT1=
EXTT2=
EXTT3=
EXTT4=
EXTT5=
EXTT6=
EXTT7=
EXTT8=
EXTT9=
EXTT10=
EXTT11=
EXTT12=
EXTT13=
EXTT14=
EXTT15=
EXTT16=
EXTT17=
PLAYORDER=
